<svg width="88" height="75" viewBox="0 0 88 75" fill="none" xmlns="http://www.w3.org/2000/svg">
<path d="M44 0L65.6506 37.5L87.3013 75H44H0.69873L22.3494 37.5L44 0Z" fill="white"/>
<path d="M44 0L65.6506 37.5L87.3013 75H44H0.69873L22.3494 37.5L44 0Z" fill="url(#paint0_linear_1_2)"/>
<path d="M44 0L65.6506 37.5L87.3013 75H44H0.69873L22.3494 37.5L44 0Z" fill="url(#paint1_linear_1_2)"/>
<path d="M44 0L65.6506 37.5L87.3013 75H44H0.69873L22.3494 37.5L44 0Z" fill="url(#paint2_linear_1_2)"/>
<defs>
<linearGradient id="paint0_linear_1_2" x1="44" y1="75" x2="44" y2="-4.79797e-07" gradientUnits="userSpaceOnUse">
<stop stop-color="#FF0000" stop-opacity="0"/>
<stop offset="1" stop-color="#FF0000"/>
</linearGradient>
<linearGradient id="paint1_linear_1_2" x1="65.5" y1="37" x2="1" y2="75" gradientUnits="userSpaceOnUse">
<stop stop-color="#00FF00" stop-opacity="0"/>
<stop offset="1" stop-color="#00FF00"/>
</linearGradient>
<linearGradient id="paint2_linear_1_2" x1="23" y1="37" x2="87" y2="75" gradientUnits="userSpaceOnUse">
<stop stop-color="#0000FF" stop-opacity="0"/>
<stop offset="1" stop-color="#0000FF"/>
</linearGradient>
</defs>
</svg>
